<?xml version="1.0" standalone="no"?>
<!DOCTYPE svg PUBLIC "-//W3C//DTD SVG 20010904//EN"
 "http://www.w3.org/TR/2001/REC-SVG-20010904/DTD/svg10.dtd">
<svg version="1.0" xmlns="http://www.w3.org/2000/svg"
 width="512.000000pt" height="512.000000pt" viewBox="0 0 512.000000 512.000000"
 preserveAspectRatio="xMidYMid meet">

<g transform="translate(0.000000,512.000000) scale(0.100000,-0.100000)"
fill="#2f4858" stroke="none">
<path d="M2565 4628 c-74 -26 -149 -103 -193 -196 -22 -49 -23 -55 -9 -70 14
-13 24 -14 69 -3 68 15 109 6 145 -31 23 -25 28 -38 28 -82 0 -42 -6 -61 -30
-95 -77 -111 -85 -126 -85 -164 0 -107 111 -164 201 -104 65 44 72 150 13 196
l-26 21 65 70 c85 91 110 144 115 236 4 79 -13 127 -65 176 -56 53 -152 73
-228 46z"/>
<path d="M3637 4196 c-52 -19 -99 -57 -141 -115 -46 -62 -69 -117 -60 -143 5
-18 11 -20 53 -12 113 19 163 1 190 -70 19 -50 5 -95 -58 -180 -56 -76 -67
-111 -51 -159 16 -52 52 -79 108 -85 85 -8 142 41 142 123 0 42 -22 90 -49
104 -17 10 -13 17 43 74 83 87 118 152 124 236 5 75 -8 116 -54 170 -54 65
-158 88 -247 57z m189 -31 c99 -58 124 -179 64 -301 -24 -50 -54 -85 -135
-161 -101 -94 -135 -137 -59 -75 27 22 42 28 53 22 63 -33 77 -117 27 -169
-73 -76 -196 -28 -196 77 0 15 15 50 33 76 17 27 44 67 60 89 21 32 27 53 27
95 0 50 -3 58 -40 94 -40 40 -41 40 -102 36 -35 -3 -71 -8 -80 -13 -32 -13
-34 24 -4 80 34 65 99 132 151 156 60 28 148 25 201 -6z"/>
<path d="M1715 4096 c-123 -31 -233 -127 -306 -269 -63 -124 -44 -164 62 -133
74 22 136 20 183 -7 74 -42 105 -117 86 -203 -12 -51 -25 -74 -91 -159 -54
-69 -74 -106 -83 -154 -14 -74 33 -158 109 -192 118 -54 246 19 262 149 9 78
-21 130 -105 187 -1 2 29 33 69 71 39 38 93 100 120 138 164 232 93 508 -147
571 -68 18 -91 18 -159 1z m205 -33 c61 -27 118 -86 148 -152 21 -45 25 -71
25 -131 -2 -161 -82 -286 -302 -470 -56 -47 -97 -86 -91 -88 5 -2 31 15 56 37
26 23 53 41 60 41 19 0 73 -48 89 -81 23 -44 19 -120 -8 -160 -35 -52 -82 -79
-139 -79 -65 0 -109 20 -143 64 -58 76 -41 160 55 281 63 79 90 137 90 195 0
71 -17 115 -60 153 -54 49 -108 63 -185 47 -98 -20 -119 -19 -123 9 -8 54 99
215 190 286 94 74 236 94 338 48z"/>
<path d="M2805 3491 c-16 -10 -50 -40 -74 -66 l-44 -48 27 -24 c27 -23 28 -27
25 -102 -3 -62 -1 -83 12 -97 9 -11 22 -36 29 -57 9 -28 24 -46 65 -71 29 -19
56 -39 59 -44 3 -6 -26 -41 -64 -78 -72 -69 -151 -183 -234 -336 l-48 -88 176
0 c134 0 176 3 176 13 0 20 52 123 56 111 3 -6 -7 -35 -21 -65 l-25 -54 63 -3
c92 -5 96 -22 5 -22 l-76 0 -17 -50 c-16 -48 -16 -51 6 -110 25 -68 53 -110
75 -110 8 0 14 -4 14 -10 0 -6 -47 -10 -120 -10 -66 0 -120 2 -120 4 0 1 20
33 44 71 40 60 96 180 96 205 0 6 -254 11 -712 12 l-713 3 -77 315 c-42 173
-77 319 -77 323 -1 4 -13 19 -27 32 l-27 25 -547 0 c-517 0 -548 -1 -563 -18
-23 -25 -21 -65 4 -88 19 -17 43 -19 246 -24 l225 -5 198 -799 c109 -439 204
-811 210 -827 17 -41 73 -87 114 -95 34 -6 35 -7 20 -29 -8 -12 -40 -123 -70
-246 -80 -327 -70 -299 -103 -299 -43 0 -94 -40 -110 -87 -13 -35 -13 -46 0
-79 23 -61 67 -84 156 -84 94 0 128 17 154 76 l20 44 179 0 178 0 7 -29 c3
-15 20 -41 36 -57 29 -28 34 -29 124 -29 93 0 95 0 127 33 29 29 33 39 33 88
0 51 -3 58 -37 90 -31 28 -45 34 -83 34 -25 0 -45 3 -45 8 0 4 28 121 62 261
50 203 68 258 87 277 23 23 28 24 183 24 l160 0 26 -27 c23 -24 37 -68 91
-286 l63 -257 -26 -21 c-33 -26 -56 -70 -56 -107 0 -35 37 -92 70 -109 37 -19
166 -17 200 3 29 18 60 62 60 88 0 14 22 16 180 16 l180 0 16 -40 c24 -58 65
-80 153 -80 84 0 123 16 151 63 23 38 25 78 6 115 -28 55 -51 66 -144 72 l-86
5 -63 255 c-34 140 -70 267 -78 282 -16 28 -16 28 12 28 15 0 37 3 49 6 18 5
24 -3 42 -54 26 -70 88 -145 145 -174 51 -26 140 -27 223 -3 121 35 316 146
438 249 l66 57 63 -20 c148 -45 347 -75 582 -87 162 -8 185 -14 185 -47 0 -36
28 -110 47 -125 40 -29 41 -23 46 271 3 155 6 291 8 302 5 23 -59 44 -471 155
-140 37 -275 75 -299 83 -39 14 -46 14 -67 1 -19 -13 -21 -19 -12 -44 l10 -29
38 25 39 26 303 -82 c167 -46 313 -86 325 -91 l22 -8 -20 -58 c-31 -88 -50
-200 -50 -287 l0 -79 -148 7 c-196 9 -517 62 -571 96 -10 6 4 27 56 84 38 42
70 76 72 76 2 0 15 -9 29 -20 27 -21 87 -27 98 -10 3 6 1 10 -5 10 -19 0 -108
90 -133 134 -33 58 -75 168 -91 234 -20 83 -150 506 -179 582 -13 36 -38 92
-55 125 l-30 60 24 28 c13 16 24 33 24 38 0 14 -40 51 -77 70 -17 9 -66 58
-108 108 -137 161 -226 210 -359 198 -34 -3 -68 -9 -77 -12 -25 -9 -59 79 -59
152 0 70 -22 158 -48 193 -11 14 -32 29 -48 34 -16 5 -41 15 -56 22 -37 20
-107 17 -143 -5z m127 -5 c14 -8 42 -19 62 -26 23 -7 42 -22 51 -40 22 -43 19
-50 -17 -43 -22 4 -29 3 -24 -5 4 -7 20 -12 35 -12 19 0 30 -6 33 -18 5 -17
-2 -18 -71 -18 -42 1 -86 -3 -98 -7 -19 -7 -23 -5 -23 12 0 16 11 24 48 35 31
10 39 15 23 15 -14 1 -55 -9 -91 -20 -68 -22 -99 -21 -134 4 -18 13 -17 16 20
57 39 43 102 79 139 80 11 0 32 -6 47 -14z m-72 -162 c0 -8 5 -24 11 -35 10
-20 10 -19 28 2 15 19 20 20 40 9 22 -11 23 -17 17 -65 -4 -34 -2 -56 5 -60 6
-4 38 -9 71 -10 58 -4 62 -5 75 -36 18 -44 18 -44 -34 -66 -27 -11 -70 -34
-98 -52 -40 -26 -51 -29 -57 -17 -5 8 -31 27 -58 42 -41 22 -52 35 -66 73 -10
25 -24 51 -31 58 -11 9 -13 25 -8 67 6 46 11 56 26 56 11 0 19 5 19 11 0 6 -9
9 -20 6 -12 -3 -20 0 -20 7 0 8 15 13 36 14 20 1 39 4 42 7 10 10 22 5 22 -11z
m220 -39 c0 -14 -6 -25 -12 -25 -8 -1 -6 -6 5 -14 9 -7 17 -25 17 -40 0 -24
-3 -26 -42 -26 -24 0 -53 3 -65 6 -19 5 -20 9 -11 35 8 23 16 29 41 31 l32 1
-31 4 c-21 3 -35 12 -42 29 l-12 24 60 0 c57 0 60 -1 60 -25z m-1804 -168 c13
-15 24 -37 24 -48 0 -18 -10 -19 -335 -19 -267 0 -335 3 -335 13 0 7 -9 30
-19 50 l-19 38 330 -3 330 -3 24 -28z m2028 -223 c43 -58 75 -109 72 -112 -3
-3 -7 -3 -9 -1 -2 2 -36 49 -76 104 -40 55 -84 108 -97 118 -34 26 -30 42 5
18 15 -11 63 -68 105 -127z m-1985 99 c6 -21 36 -141 66 -268 31 -126 59 -238
61 -247 5 -17 -15 -18 -330 -18 l-335 0 -10 38 c-21 80 -131 522 -131 527 0 3
151 5 335 5 l334 0 10 -37z m2376 -305 c14 -21 14 -24 -2 -30 -89 -37 -116
-51 -108 -54 6 -3 38 7 70 20 l60 25 17 -22 c30 -38 84 -186 161 -439 l74
-246 -120 -83 c-67 -45 -127 -82 -134 -82 -7 0 -13 -4 -13 -9 0 -9 -79 -63
-84 -57 -2 2 -27 72 -56 154 -47 138 -51 155 -45 210 10 93 7 297 -5 309 -8 8
-9 -13 -4 -69 3 -48 -1 -153 -11 -265 -9 -102 -15 -240 -13 -307 2 -67 0 -125
-4 -129 -13 -12 -9 -24 7 -24 7 0 18 6 22 13 9 15 342 241 347 236 2 -2 13
-42 25 -89 11 -47 44 -130 72 -185 l50 -100 -71 -67 c-180 -170 -421 -306
-575 -324 -107 -13 -194 34 -248 135 -48 87 -96 345 -112 606 -4 56 -2 170 5
254 11 140 10 154 -6 172 -16 18 -15 20 12 56 163 214 457 411 616 412 48 1
59 -3 73 -21z m-2579 -373 c13 -66 23 -126 24 -132 0 -10 -35 -13 -144 -13
l-144 0 -31 125 c-17 68 -31 129 -31 135 0 7 51 10 152 8 l152 -3 22 -120z
m345 -6 c8 -71 13 -132 10 -135 -2 -2 -73 -4 -157 -4 -151 0 -154 0 -159 23
-2 12 -12 63 -21 112 -8 50 -18 100 -21 113 l-5 22 169 0 169 0 15 -131z m303
119 c3 -7 7 -68 10 -135 l7 -123 -144 0 -144 0 -12 108 c-7 59 -14 119 -17
135 l-6 27 152 0 c112 0 152 -3 154 -12z m306 -123 l0 -135 -135 0 -134 0 -5
33 c-3 17 -7 78 -11 135 l-5 102 145 0 145 0 0 -135z m306 83 c-3 -29 -6 -76
-6 -103 0 -48 -3 -53 -42 -83 -40 -31 -45 -32 -140 -32 l-98 0 0 135 0 135
146 0 147 0 -7 -52z m137 21 c-10 -17 -40 -58 -68 -92 l-50 -62 -3 79 c-2 44
-1 85 2 93 4 9 25 13 71 13 l66 0 -18 -31z m-1341 -394 c14 -77 23 -144 19
-148 -4 -4 -65 -6 -136 -5 l-128 3 -33 135 c-18 74 -33 141 -34 148 0 10 32
12 142 10 l143 -3 27 -140z m316 58 c6 -49 14 -116 18 -151 l7 -63 -149 3
-149 3 -26 143 c-14 78 -23 144 -21 147 3 3 74 5 157 5 l152 0 11 -87z m296
35 c3 -29 6 -85 6 -124 l0 -72 -34 -6 c-19 -4 -45 -15 -59 -26 -20 -16 -41
-20 -96 -20 -39 0 -71 1 -71 3 0 1 -7 57 -15 122 -8 66 -15 132 -15 148 l0 27
139 0 138 0 7 -52z m286 -7 l0 -58 -57 -26 c-32 -14 -75 -32 -95 -40 -20 -9
-47 -27 -59 -41 -13 -14 -28 -26 -34 -26 -12 0 -25 110 -25 208 l0 42 135 0
135 0 0 -59z m185 49 c-6 -10 -116 -73 -147 -85 -16 -6 -18 -1 -18 44 l0 51
86 0 c53 0 83 -4 79 -10z m730 -46 c-4 -31 -15 -97 -24 -148 l-18 -91 -146 -3
c-129 -2 -147 -1 -147 14 0 8 5 59 11 112 10 83 16 102 42 134 l30 38 130 0
129 0 -7 -56z m-339 -111 c-4 -38 -10 -83 -13 -100 l-5 -33 -104 0 c-57 0
-104 3 -104 8 0 4 28 25 61 47 32 22 83 64 111 93 29 28 54 52 56 52 3 0 1
-30 -2 -67z m909 -163 c25 -68 45 -127 45 -131 0 -4 -21 -21 -47 -38 l-48 -31
-6 63 c-6 60 0 271 8 264 2 -2 23 -59 48 -127z m-579 42 c-11 -10 -14 3 -8 33
l7 30 3 -28 c2 -16 1 -31 -2 -35z m-1178 6 c-3 -7 -24 -14 -49 -16 -41 -2 -43
-1 -25 13 24 19 79 20 74 3z m40 1 c-2 -6 -8 -10 -13 -10 -5 0 -11 4 -13 10
-2 6 4 11 13 11 9 0 15 -5 13 -11z m-633 -51 c12 -49 45 -234 45 -250 0 -16
-13 -18 -124 -18 l-124 0 -31 128 c-18 70 -34 135 -37 145 -5 16 6 17 130 17
132 0 136 -1 141 -22z m322 -83 c6 -55 14 -119 17 -142 l6 -43 -139 0 -139 0
-21 118 c-12 64 -24 129 -27 145 l-6 28 149 -3 148 -3 12 -100z m153 97 c0 -5
-11 -19 -24 -31 -34 -32 -52 -79 -37 -94 9 -9 16 -9 30 0 17 11 18 10 8 -16
-14 -38 -3 -64 23 -56 15 5 22 0 30 -19 10 -27 46 -42 79 -33 13 3 21 -1 24
-14 5 -18 -2 -19 -122 -19 l-127 0 -13 123 c-7 67 -15 132 -18 145 -5 21 -3
22 71 22 42 0 76 -4 76 -8z m120 -24 c0 -18 3 -63 7 -100 5 -59 4 -68 -11 -68
-12 0 -15 -6 -10 -25 7 -30 -10 -33 -44 -9 -26 18 -28 46 -6 68 9 10 12 21 7
30 -7 12 -12 9 -28 -14 -24 -36 -45 -46 -45 -22 0 19 26 61 49 78 9 7 12 17 6
30 -6 15 -9 16 -12 4 -2 -8 -18 -24 -36 -35 -46 -28 -47 -28 -47 -10 0 8 21
36 46 60 38 38 52 45 85 45 37 0 39 -1 39 -32z m50 -3 c6 -18 27 -48 45 -64
l35 -30 -46 -32 c-58 -40 -64 -33 -64 79 0 87 11 105 30 47z m775 -2 c-4 -21
-11 -85 -18 -143 l-12 -105 -125 -3 -125 -3 8 138 c5 88 12 140 20 145 7 4 67
8 135 8 l122 0 -5 -37z m312 15 c-3 -13 -15 -78 -27 -145 l-23 -123 -140 0
-139 0 5 33 c3 17 11 77 17 132 6 55 13 106 15 113 3 9 42 12 151 12 l146 0
-5 -22z m46 -75 c4 -54 9 -119 13 -145 l7 -48 -47 0 c-36 0 -46 4 -46 17 0 17
39 239 45 261 12 35 23 1 28 -85z m-643 29 c0 -22 -3 -80 -6 -130 l-7 -92
-118 0 -119 0 0 84 0 84 83 27 c45 15 98 36 117 46 48 25 50 24 50 -19z m-270
-142 l0 -80 -120 0 -120 0 0 39 c0 37 3 40 68 80 56 34 76 41 120 41 l52 0 0
-80z m-800 -157 c16 -84 28 -114 52 -140 l21 -23 -104 0 c-148 0 -182 23 -213
146 -9 34 -16 65 -16 68 0 3 56 6 124 6 l125 0 11 -57z m284 30 c2 -16 8 -50
11 -78 4 -27 13 -65 20 -82 l14 -33 -115 0 c-114 0 -116 0 -144 28 -28 29 -43
68 -56 150 l-7 42 136 0 135 0 6 -27z m269 -66 c3 -51 9 -101 13 -110 5 -15
-5 -17 -105 -17 l-110 0 -15 29 c-14 26 -36 132 -36 174 0 15 13 17 123 17
l124 0 6 -93z m247 -17 l0 -110 -105 0 -104 0 -10 38 c-5 20 -11 70 -14 110
l-4 72 118 0 119 0 0 -110z m253 38 c-3 -40 -9 -90 -14 -110 l-10 -38 -104 0
-105 0 0 110 0 110 119 0 118 0 -4 -72z m262 15 c-9 -80 -23 -129 -41 -148
-12 -12 -39 -15 -121 -15 -104 0 -105 0 -99 23 4 12 9 61 13 110 l6 87 125 0
124 0 -7 -57z m291 15 c-13 -82 -28 -121 -56 -150 -28 -28 -30 -28 -144 -28
l-115 0 14 33 c7 17 16 55 20 82 3 28 9 62 11 78 l6 27 135 0 136 0 -7 -42z
m147 -59 c9 -56 14 -105 11 -110 -3 -5 -53 -9 -111 -9 l-106 0 21 23 c24 26
36 56 52 140 l11 57 52 0 52 0 18 -101z m-1172 -171 c-10 -18 -44 -139 -76
-268 -31 -129 -59 -243 -61 -252 -4 -12 -15 -18 -36 -18 -36 0 -108 -65 -108
-99 0 -21 -3 -21 -180 -21 -163 0 -181 2 -186 18 -22 67 -65 102 -126 102 -21
0 -38 2 -38 4 0 17 123 506 131 522 6 12 21 27 33 32 13 7 143 11 343 11 l322
1 -18 -32z m1084 9 c23 -19 34 -55 91 -287 l64 -264 -25 -20 c-13 -12 -32 -38
-40 -58 l-15 -38 -175 0 -174 0 -20 44 c-25 57 -49 70 -145 76 l-79 5 -64 260
c-35 142 -70 269 -78 282 l-15 23 324 0 c323 0 325 0 351 -23z m-1910 -656 c9
-31 -5 -52 -33 -49 -33 4 -50 31 -33 52 18 22 58 20 66 -3z m694 0 c14 -26 -8
-54 -39 -49 -32 4 -38 28 -8 29 l23 2 -22 4 c-13 2 -23 8 -23 12 0 27 55 29
69 2z m752 3 c17 -21 0 -49 -31 -49 -31 0 -48 28 -31 49 8 9 21 16 31 16 10 0
23 -7 31 -16z m694 -19 c0 -26 -3 -30 -29 -30 -35 0 -48 24 -14 26 l23 2 -22
4 c-40 8 -25 36 17 31 20 -2 25 -8 25 -33z"/>
<path d="M2780 3230 c0 -5 5 -10 10 -10 6 0 10 5 10 10 0 6 -4 10 -10 10 -5 0
-10 -4 -10 -10z"/>
<path d="M2810 3135 c-16 -19 0 -19 26 0 16 12 16 14 3 15 -9 0 -22 -7 -29
-15z"/>
<path d="M3369 2501 c-58 -39 -124 -100 -116 -108 4 -3 26 12 51 35 24 22 62
52 85 66 22 15 41 28 41 31 0 11 -19 3 -61 -24z"/>
<path d="M3330 1285 c0 -14 4 -25 9 -25 4 0 6 11 3 25 -2 14 -6 25 -8 25 -2 0
-4 -11 -4 -25z"/>
<path d="M3410 1291 c0 -6 4 -13 10 -16 6 -3 7 1 4 9 -7 18 -14 21 -14 7z"/>
<path d="M4010 1940 c0 -18 3 -19 20 -10 22 12 18 30 -6 30 -8 0 -14 -9 -14
-20z"/>
<path d="M4072 1848 c-26 -16 -32 -26 -28 -42 3 -12 6 -25 6 -29 0 -8 62 25
83 44 9 7 -9 49 -21 49 -4 0 -22 -10 -40 -22z"/>
<path d="M4105 1783 c-22 -14 -41 -27 -43 -29 -6 -4 29 -65 36 -62 29 14 82
52 82 59 0 13 -23 59 -29 59 -4 0 -24 -12 -46 -27z"/>
<path d="M4141 1700 l-41 -30 22 -30 c12 -17 26 -30 30 -30 7 0 37 17 66 36 6
4 -19 73 -27 79 -5 2 -27 -9 -50 -25z"/>
<path d="M4890 1666 c0 -7 -3 -27 -6 -44 l-6 -30 37 8 c51 11 53 16 20 50 -31
33 -45 38 -45 16z"/>
<path d="M4197 1614 c-34 -18 -31 -33 11 -57 l32 -19 -1 29 c0 15 -3 35 -7 45
-6 15 -10 15 -35 2z"/>
<path d="M4908 1583 c-24 -4 -28 -9 -28 -37 l0 -33 51 10 c46 9 50 12 47 36
-3 27 -18 32 -70 24z"/>
<path d="M4925 1506 c-48 -11 -50 -13 -48 -45 0 -18 3 -35 6 -38 3 -3 29 -2
56 2 l51 7 0 44 c0 24 -3 44 -7 43 -5 0 -30 -6 -58 -13z"/>
<path d="M4928 1408 c-46 -10 -48 -12 -48 -45 l0 -34 48 7 c61 9 62 9 62 50 0
19 -3 33 -7 33 -5 -1 -29 -6 -55 -11z"/>
<path d="M4928 1322 l-48 -3 0 -41 c0 -37 2 -40 23 -34 12 3 32 6 44 6 17 0
24 8 29 35 3 20 5 37 3 38 -2 1 -25 1 -51 -1z"/>
<path d="M4880 1195 c0 -32 2 -35 30 -35 24 0 33 6 40 26 16 40 13 44 -30 44
-39 0 -40 -1 -40 -35z"/>
<path d="M4887 1138 c-20 -11 -23 -38 -4 -38 8 0 22 8 31 19 13 15 14 20 3 24
-7 3 -21 1 -30 -5z"/>
</g>
</svg>
