<svg width="500" height="500" viewBox="0 0 500 500" fill="none" xmlns="http://www.w3.org/2000/svg">
<rect width="500" height="500" fill="white"/>
<path d="M56.364 401.664C53.732 401.888 51.408 401.734 49.392 401.202C47.404 400.67 45.808 399.662 44.604 398.178C44.184 397.702 43.862 397.072 43.638 396.288C43.638 396.26 43.582 396.022 43.47 395.574C43.414 395.35 43.358 395.182 43.302 395.07C43.106 394.566 43.12 394.076 43.344 393.6C43.568 393.124 43.932 392.788 44.436 392.592C44.94 392.396 45.43 392.41 45.906 392.634C46.382 392.858 46.718 393.222 46.914 393.726C46.998 393.95 47.082 394.23 47.166 394.566L47.208 394.818C47.264 394.986 47.306 395.112 47.334 395.196C47.418 395.476 47.488 395.658 47.544 395.742C48.188 396.526 49.266 397.156 50.778 397.632C52.318 398.108 53.942 398.192 55.65 397.884C57.414 397.548 58.8 396.974 59.808 396.162C60.816 395.322 61.348 394.384 61.404 393.348C61.46 392.256 61.25 391.402 60.774 390.786C60.298 390.142 59.598 389.624 58.674 389.232C58.114 388.98 57.232 388.686 56.028 388.35C55.468 388.21 55.062 388.098 54.81 388.014C53.97 387.678 53.438 387.174 53.214 386.502C52.99 385.886 53.018 385.298 53.298 384.738C53.55 384.206 53.97 383.842 54.558 383.646C54.922 383.506 55.426 383.436 56.07 383.436C56.126 383.436 56.266 383.45 56.49 383.478C56.714 383.478 56.896 383.478 57.036 383.478H57.246C57.974 383.17 58.548 382.778 58.968 382.302C59.528 381.686 59.808 380.944 59.808 380.076C59.836 379.208 59.556 378.382 58.968 377.598C58.464 376.926 57.694 376.436 56.658 376.128C55.65 375.792 54.516 375.694 53.256 375.834C52.024 375.974 50.918 376.324 49.938 376.884C48.986 377.444 48.314 378.102 47.922 378.858C47.866 378.914 47.838 379.068 47.838 379.32C47.81 379.404 47.796 379.474 47.796 379.53V379.74C47.796 379.824 47.782 379.88 47.754 379.908C47.726 380.216 47.698 380.482 47.67 380.706C47.586 381.238 47.32 381.658 46.872 381.966C46.452 382.246 45.976 382.344 45.444 382.26C44.912 382.176 44.492 381.924 44.184 381.504C43.904 381.056 43.806 380.566 43.89 380.034C43.918 379.922 43.932 379.782 43.932 379.614C43.96 379.194 43.974 378.97 43.974 378.942C44.058 378.214 44.226 377.598 44.478 377.094C45.234 375.638 46.368 374.476 47.88 373.608C49.42 372.74 51.072 372.208 52.836 372.012C54.628 371.816 56.364 371.984 58.044 372.516C59.724 373.048 61.068 373.986 62.076 375.33C63.14 376.758 63.672 378.34 63.672 380.076C63.672 381.812 63.056 383.422 61.824 384.906C61.488 385.27 61.11 385.606 60.69 385.914C63.91 387.482 65.436 390.016 65.268 393.516C65.212 394.692 64.904 395.77 64.344 396.75C63.812 397.702 63.098 398.5 62.202 399.144C61.334 399.788 60.41 400.32 59.43 400.74C58.45 401.132 57.428 401.44 56.364 401.664ZM75.7234 401.916C74.2954 401.636 73.0354 401.104 71.9434 400.32C70.8514 399.508 69.9974 398.57 69.3814 397.506C68.7934 396.442 68.3594 395.322 68.0794 394.146C67.8274 392.97 67.7434 391.766 67.8274 390.534C67.9114 388.938 68.2334 387.412 68.7934 385.956C69.3814 384.472 70.2774 383.156 71.4814 382.008C72.7134 380.86 74.1414 380.174 75.7654 379.95C76.0174 379.894 76.2974 379.866 76.6054 379.866C77.0814 379.586 77.5854 379.488 78.1174 379.572L78.3694 379.614C78.5094 379.614 78.6774 379.628 78.8734 379.656C79.0694 379.656 79.2794 379.684 79.5034 379.74C79.7554 379.768 80.0074 379.81 80.2594 379.866C80.5114 379.922 80.7354 379.992 80.9314 380.076C82.5834 380.748 83.9274 381.84 84.9634 383.352C86.0274 384.864 86.7274 386.474 87.0634 388.182C87.3994 389.89 87.4554 391.584 87.2314 393.264C86.8114 396.12 85.6774 398.374 83.8294 400.026C81.6454 401.958 78.9434 402.588 75.7234 401.916ZM76.5634 397.8C78.4394 398.192 79.9374 397.884 81.0574 396.876C82.1214 395.924 82.7934 394.524 83.0734 392.676C83.3254 390.8 83.1154 389.036 82.4434 387.384C81.7714 385.732 80.8054 384.612 79.5454 384.024C79.1254 384.304 78.6774 384.416 78.2014 384.36C78.1454 384.36 77.7114 384.276 76.8994 384.108C76.6474 384.08 76.4654 384.066 76.3534 384.066C75.2334 384.234 74.2534 384.948 73.4134 386.208C72.5734 387.44 72.1114 388.952 72.0274 390.744C71.9154 392.564 72.2654 394.118 73.0774 395.406C73.8614 396.694 75.0234 397.492 76.5634 397.8ZM92.9627 399.228C91.2267 397.464 90.2047 394.93 89.8967 391.626C89.7287 389.638 89.8127 387.16 90.1487 384.192C90.3167 382.764 90.6247 381.448 91.0727 380.244C91.5487 379.012 92.1647 377.892 92.9207 376.884C93.7047 375.848 94.7127 375.008 95.9447 374.364C97.2047 373.692 98.6327 373.258 100.229 373.062C100.705 373.006 101.181 372.978 101.657 372.978C102.133 372.95 102.469 372.936 102.665 372.936C102.861 372.908 103.057 372.866 103.253 372.81C103.477 372.726 103.687 372.614 103.883 372.474L104.009 372.264L104.219 371.802C104.359 371.55 104.485 371.34 104.597 371.172C104.905 370.668 105.339 370.36 105.899 370.248C106.487 370.136 107.019 370.234 107.495 370.542C107.999 370.85 108.307 371.298 108.419 371.886C108.531 372.446 108.433 372.964 108.125 373.44C108.069 373.524 108.013 373.622 107.957 373.734L107.663 374.28C107.327 374.924 106.935 375.414 106.487 375.75C106.011 376.142 105.451 376.45 104.807 376.674C104.163 376.898 103.617 377.038 103.169 377.094C102.749 377.15 102.245 377.192 101.657 377.22C101.069 377.22 100.733 377.234 100.649 377.262C97.5687 377.598 95.5947 379.362 94.7267 382.554C95.4827 381.854 96.3227 381.294 97.2467 380.874C99.7667 379.726 102.329 379.88 104.933 381.336C106.501 382.204 107.761 383.422 108.713 384.99C109.693 386.558 110.239 388.35 110.351 390.366C110.491 392.382 110.029 394.496 108.965 396.708C108.013 398.668 106.571 400.138 104.639 401.118C102.707 402.07 100.663 402.378 98.5067 402.042C96.3507 401.734 94.5027 400.796 92.9627 399.228ZM95.9867 396.288C96.8547 397.184 97.9047 397.73 99.1367 397.926C100.397 398.094 101.587 397.898 102.707 397.338C103.827 396.778 104.653 395.952 105.185 394.86C105.941 393.348 106.263 391.934 106.151 390.618C106.067 389.274 105.731 388.126 105.143 387.174C104.555 386.222 103.813 385.494 102.917 384.99C101.545 384.234 100.215 384.136 98.9267 384.696C97.3307 385.424 96.0707 387.09 95.1467 389.694C94.9507 390.254 94.5867 390.66 94.0547 390.912C94.0827 391.024 94.0967 391.136 94.0967 391.248C94.2927 393.544 94.9227 395.224 95.9867 396.288ZM115.175 408.426C115.063 406.522 114.979 404.604 114.923 402.672C114.867 400.74 114.825 398.416 114.797 395.7C114.769 392.956 114.741 391.066 114.713 390.03C114.293 389.722 114.027 389.302 113.915 388.77C113.803 388.21 113.887 387.706 114.167 387.258L114.629 386.544C114.573 385.228 114.517 383.982 114.461 382.806C114.433 382.218 114.615 381.714 115.007 381.294C115.399 380.846 115.875 380.608 116.435 380.58C116.939 380.552 117.387 380.692 117.779 381C118.199 381.308 118.479 381.7 118.619 382.176C118.899 381.952 119.193 381.742 119.501 381.546C121.237 380.37 122.945 379.754 124.625 379.698C126.333 379.614 127.845 380.034 129.161 380.958C130.365 381.77 131.359 382.862 132.143 384.234C132.927 385.578 133.473 387.062 133.781 388.686C134.481 392.186 134.117 395.224 132.689 397.8C131.849 399.312 130.701 400.474 129.245 401.286C127.817 402.098 126.123 402.434 124.163 402.294C123.043 402.21 122.161 402.084 121.517 401.916C120.901 401.72 120.117 401.342 119.165 400.782L119.081 400.74C119.137 403.484 119.235 405.962 119.375 408.174C119.403 408.762 119.221 409.266 118.829 409.686C118.465 410.134 117.989 410.372 117.401 410.4C116.813 410.428 116.295 410.246 115.847 409.854C115.427 409.49 115.203 409.014 115.175 408.426ZM124.415 398.094C126.543 398.234 128.069 397.464 128.993 395.784C129.917 394.076 130.141 391.99 129.665 389.526C129.441 388.378 129.063 387.356 128.531 386.46C128.027 385.564 127.453 384.892 126.809 384.444C125.437 383.52 123.785 383.702 121.853 384.99C120.705 385.774 119.711 386.726 118.871 387.846L118.997 395.07C119.557 395.826 119.851 396.218 119.879 396.246C120.019 396.414 120.481 396.722 121.265 397.17C121.937 397.534 122.427 397.772 122.735 397.884C123.071 397.968 123.631 398.038 124.415 398.094ZM145.35 401.916C143.95 402.112 142.606 401.916 141.318 401.328C140.058 400.712 138.952 399.704 138 398.304C137.244 397.184 136.782 396.162 136.614 395.238C136.446 394.286 136.39 393.124 136.446 391.752C136.558 388.924 137.244 386.502 138.504 384.486C139.792 382.442 141.486 381.042 143.586 380.286C145.658 379.502 147.842 379.46 150.138 380.16C152.406 380.86 154.492 382.218 156.396 384.234C156.816 384.682 157.012 385.2 156.984 385.788C156.956 386.376 156.732 386.88 156.312 387.3C156.088 387.524 155.808 387.692 155.472 387.804C155.5 388.056 155.514 388.364 155.514 388.728C155.514 388.952 155.5 389.176 155.472 389.4C155.472 389.596 155.472 389.708 155.472 389.736V390.114C155.5 390.534 155.528 391.024 155.556 391.584C155.612 392.116 155.64 392.508 155.64 392.76C155.668 393.012 155.696 393.292 155.724 393.6C155.78 393.908 155.822 394.16 155.85 394.356C155.906 394.552 155.962 394.748 156.018 394.944C156.27 395.784 157.166 396.96 158.706 398.472C159.098 398.92 159.294 399.438 159.294 400.026C159.294 400.614 159.07 401.118 158.622 401.538C158.202 401.958 157.698 402.168 157.11 402.168C156.522 402.168 156.004 401.958 155.556 401.538C153.848 399.774 152.728 398.262 152.196 397.002C152.084 397.226 151.958 397.422 151.818 397.59C151.034 398.738 150.082 399.704 148.962 400.488C147.842 401.272 146.638 401.748 145.35 401.916ZM144.762 397.632C146.078 397.464 147.24 396.638 148.248 395.154C149.256 393.642 150.04 391.556 150.6 388.896V388.728C150.6 388.616 150.6 388.462 150.6 388.266C150.628 388.07 150.642 387.874 150.642 387.678C150.67 387.146 150.726 386.74 150.81 386.46C150.894 386.18 151.034 385.914 151.23 385.662C151.258 385.606 151.286 385.564 151.314 385.536C149.13 384.024 147.044 383.632 145.056 384.36C143.908 384.78 142.928 385.634 142.116 386.922C141.304 388.182 140.856 389.848 140.772 391.92C140.744 392.984 140.772 393.754 140.856 394.23C140.94 394.706 141.206 395.266 141.654 395.91C142.522 397.226 143.558 397.8 144.762 397.632ZM185.41 401.286C183.338 398.822 180.678 396.05 177.43 392.97C177.234 392.942 177.066 392.9 176.926 392.844C176.926 395.14 176.982 397.464 177.094 399.816C177.122 400.404 176.94 400.922 176.548 401.37C176.156 401.79 175.666 402.014 175.078 402.042C174.518 402.07 174.014 401.888 173.566 401.496C173.146 401.104 172.922 400.628 172.894 400.068C172.782 397.884 172.726 395.42 172.726 392.676H172.012C171.2 393.768 170.01 395.196 168.442 396.96C166.51 399.06 165.25 400.488 164.662 401.244C164.298 401.72 163.822 401.986 163.234 402.042C162.674 402.126 162.156 402 161.68 401.664C161.232 401.3 160.966 400.838 160.882 400.278C160.826 399.69 160.966 399.172 161.302 398.724C161.918 397.996 163.262 396.47 165.334 394.146C166.65 392.662 167.644 391.472 168.316 390.576C165.768 388.392 163.458 385.928 161.386 383.184C160.994 382.764 160.812 382.26 160.84 381.672C160.868 381.084 161.092 380.594 161.512 380.202C161.932 379.81 162.436 379.628 163.024 379.656C163.612 379.684 164.102 379.908 164.494 380.328C166.874 383.38 169.492 386.096 172.348 388.476H172.726C172.754 384.78 172.768 382.554 172.768 381.798C172.768 381.21 172.964 380.72 173.356 380.328C173.776 379.908 174.28 379.698 174.868 379.698C175.456 379.698 175.946 379.908 176.338 380.328C176.758 380.72 176.968 381.21 176.968 381.798C176.968 382.582 176.954 384.822 176.926 388.518H177.346C179.25 386.838 181.392 384.15 183.772 380.454C184.136 380.006 184.598 379.754 185.158 379.698C185.746 379.642 186.264 379.81 186.712 380.202C187.16 380.566 187.412 381.042 187.468 381.63C187.524 382.19 187.356 382.694 186.964 383.142C184.78 386.614 182.834 389.148 181.126 390.744C184.122 393.572 186.614 396.19 188.602 398.598C188.994 399.046 189.162 399.564 189.106 400.152C189.05 400.712 188.798 401.188 188.35 401.58C187.902 401.944 187.384 402.098 186.796 402.042C186.236 401.986 185.774 401.734 185.41 401.286ZM209.152 398.682C208.2 399.662 207.122 400.446 205.918 401.034C204.742 401.594 203.58 401.916 202.432 402C201.284 402.112 200.108 402.056 198.904 401.832C197.728 401.608 196.65 401.202 195.67 400.614C194.718 399.998 193.836 399.27 193.024 398.43C192.212 397.562 191.596 396.568 191.176 395.448C190.784 394.3 190.56 393.096 190.504 391.836C190.476 390.548 190.742 389.162 191.302 387.678C192.31 384.878 193.906 382.764 196.09 381.336C198.274 379.908 200.57 379.334 202.978 379.614C205.47 379.922 207.528 381.084 209.152 383.1C210.804 385.088 211.63 387.65 211.63 390.786C211.63 391.57 211.294 392.172 210.622 392.592C210.202 392.9 209.726 393.026 209.194 392.97C205.722 392.606 201.004 392.578 195.04 392.886H194.956C195.18 394.034 195.698 395.042 196.51 395.91C197.35 396.75 198.288 397.338 199.324 397.674C200.388 398.01 201.536 398.038 202.768 397.758C204.028 397.45 205.148 396.778 206.128 395.742C206.548 395.322 207.038 395.112 207.598 395.112C208.186 395.112 208.69 395.322 209.11 395.742C209.53 396.134 209.74 396.624 209.74 397.212C209.74 397.772 209.544 398.262 209.152 398.682ZM195.418 388.644C200.206 388.42 204.14 388.406 207.22 388.602C206.912 387.146 206.31 386.012 205.414 385.2C204.546 384.388 203.566 383.926 202.474 383.814C201.13 383.646 199.8 383.968 198.484 384.78C197.168 385.592 196.146 386.88 195.418 388.644ZM216.151 400.11C216.011 398.318 215.899 396.652 215.815 395.112C215.731 393.488 215.675 392.102 215.647 390.954C215.647 389.778 215.633 388.196 215.605 386.208C215.605 384.22 215.591 382.764 215.563 381.84C215.563 381.252 215.759 380.748 216.151 380.328C216.543 379.908 217.033 379.698 217.621 379.698C218.209 379.698 218.713 379.894 219.133 380.286C219.553 380.678 219.763 381.168 219.763 381.756L219.847 388.434C222.675 388.322 225.811 388.266 229.255 388.266C229.227 386.698 229.143 384.57 229.003 381.882C228.975 381.294 229.157 380.79 229.549 380.37C229.941 379.922 230.417 379.684 230.977 379.656C231.565 379.628 232.069 379.81 232.489 380.202C232.937 380.594 233.175 381.07 233.203 381.63C233.483 387.118 233.623 393.208 233.623 399.9C233.623 400.488 233.413 400.992 232.993 401.412C232.601 401.804 232.111 402 231.523 402C230.935 402 230.431 401.804 230.011 401.412C229.619 400.992 229.423 400.488 229.423 399.9C229.423 397.128 229.409 394.65 229.381 392.466C225.881 392.466 222.731 392.522 219.931 392.634C219.987 395.042 220.127 397.394 220.351 399.69C220.407 400.25 220.253 400.768 219.889 401.244C219.525 401.692 219.049 401.944 218.461 402C217.901 402.056 217.383 401.902 216.907 401.538C216.459 401.174 216.207 400.698 216.151 400.11ZM239.94 400.11C239.8 398.318 239.688 396.652 239.604 395.112C239.52 393.488 239.464 392.102 239.436 390.954C239.436 389.778 239.422 388.196 239.394 386.208C239.394 384.22 239.38 382.764 239.352 381.84C239.352 381.252 239.548 380.748 239.94 380.328C240.332 379.908 240.822 379.698 241.41 379.698C241.998 379.698 242.502 379.894 242.922 380.286C243.342 380.678 243.552 381.168 243.552 381.756L243.636 388.434C246.464 388.322 249.6 388.266 253.044 388.266C253.016 386.698 252.932 384.57 252.792 381.882C252.764 381.294 252.946 380.79 253.338 380.37C253.73 379.922 254.206 379.684 254.766 379.656C255.354 379.628 255.858 379.81 256.278 380.202C256.726 380.594 256.964 381.07 256.992 381.63C257.272 387.118 257.412 393.208 257.412 399.9C257.412 400.488 257.202 400.992 256.782 401.412C256.39 401.804 255.9 402 255.312 402C254.724 402 254.22 401.804 253.8 401.412C253.408 400.992 253.212 400.488 253.212 399.9C253.212 397.128 253.198 394.65 253.17 392.466C249.67 392.466 246.52 392.522 243.72 392.634C243.776 395.042 243.916 397.394 244.14 399.69C244.196 400.25 244.042 400.768 243.678 401.244C243.314 401.692 242.838 401.944 242.25 402C241.69 402.056 241.172 401.902 240.696 401.538C240.248 401.174 239.996 400.698 239.94 400.11ZM265.787 400.698C265.619 401.23 265.269 401.636 264.737 401.916C264.233 402.168 263.701 402.196 263.141 402C262.609 401.832 262.203 401.496 261.923 400.992C261.671 400.46 261.643 399.914 261.839 399.354C261.867 399.214 261.951 398.906 262.091 398.43C262.259 397.954 262.385 397.604 262.469 397.38L262.805 396.54C262.973 396.148 263.113 395.812 263.225 395.532C263.365 395.252 263.519 394.944 263.687 394.608C263.855 394.272 264.037 393.978 264.233 393.726C264.485 393.362 264.751 393.026 265.031 392.718C263.519 391.766 262.609 390.478 262.301 388.854C262.105 387.818 262.203 386.698 262.595 385.494C262.987 384.262 263.519 383.282 264.191 382.554C265.899 380.706 268.545 379.768 272.129 379.74C274.145 379.74 276.609 380.048 279.521 380.664C280.193 380.804 280.669 381.196 280.949 381.84C281.201 382.204 281.327 382.61 281.327 383.058C281.299 384.178 281.159 387.034 280.907 391.626C280.711 395.098 280.641 397.87 280.697 399.942C280.725 400.502 280.529 400.992 280.109 401.412C279.717 401.832 279.227 402.056 278.639 402.084C278.079 402.112 277.589 401.93 277.169 401.538C276.749 401.118 276.525 400.614 276.497 400.026C276.441 398.402 276.469 396.512 276.581 394.356C274.593 394.496 272.801 394.51 271.205 394.398L270.869 394.482C269.385 394.622 268.321 395.154 267.677 396.078L267.341 396.708L267.047 397.254C266.963 397.338 266.851 397.562 266.711 397.926C266.599 398.262 266.515 398.514 266.459 398.682L266.165 399.69C265.997 400.166 265.871 400.502 265.787 400.698ZM276.791 390.198C276.959 387.622 277.057 385.704 277.085 384.444C275.209 384.108 273.557 383.94 272.129 383.94C269.777 383.94 268.167 384.43 267.299 385.41C267.019 385.69 266.781 386.124 266.585 386.712C266.417 387.3 266.361 387.734 266.417 388.014C266.613 388.994 267.761 389.666 269.861 390.03C271.569 390.31 273.697 390.352 276.245 390.156C276.441 390.156 276.623 390.17 276.791 390.198ZM301.58 402.672C301.02 402.84 300.488 402.77 299.984 402.462C299.48 402.182 299.158 401.762 299.018 401.202C298.934 400.894 298.864 400.6 298.808 400.32C298.752 400.18 298.71 400.04 298.682 399.9C298.346 398.22 298.094 396.498 297.926 394.734C297.758 392.942 297.632 390.8 297.548 388.308C297.464 385.816 297.394 384.108 297.338 383.184C297.254 383.016 297.184 382.834 297.128 382.638C297.044 382.246 297.072 381.854 297.212 381.462C297.268 380.986 297.464 380.566 297.8 380.202C298.164 379.838 298.598 379.628 299.102 379.572C299.578 379.544 300.012 379.642 300.404 379.866C302.644 379.502 304.702 379.348 306.578 379.404C308.398 379.432 309.924 379.684 311.156 380.16C313.004 380.86 314.152 381.994 314.6 383.562C315.188 385.83 314.838 387.706 313.55 389.19C313.354 389.442 313.13 389.68 312.878 389.904C313.046 389.988 313.2 390.1 313.34 390.24C314.488 391.052 315.258 392.032 315.65 393.18C316.042 394.3 316.042 395.434 315.65 396.582C315.342 397.59 314.782 398.5 313.97 399.312C313.186 400.096 312.262 400.698 311.198 401.118C309.35 401.818 306.536 402.07 302.756 401.874C302.448 402.294 302.056 402.56 301.58 402.672ZM302.546 397.632C303.778 397.744 305.052 397.786 306.368 397.758C307.712 397.702 308.818 397.506 309.686 397.17C310.19 396.974 310.61 396.708 310.946 396.372C311.31 396.036 311.548 395.686 311.66 395.322C311.856 394.706 311.604 394.132 310.904 393.6C309.98 392.928 308.538 392.634 306.578 392.718C305.43 392.774 303.918 392.984 302.042 393.348C302.154 394.944 302.322 396.372 302.546 397.632ZM301.79 388.812C304.478 388.616 306.592 388.252 308.132 387.72C309.224 387.356 309.966 386.936 310.358 386.46C310.666 386.124 310.75 385.676 310.61 385.116C310.526 384.64 310.218 384.29 309.686 384.066C308.902 383.786 307.824 383.632 306.452 383.604C305.024 383.576 303.4 383.688 301.58 383.94C301.636 385.172 301.706 386.796 301.79 388.812ZM320.289 399.984C320.289 398.64 320.191 395.826 319.995 391.542C319.827 387.034 319.771 383.702 319.827 381.546C319.855 380.986 320.079 380.51 320.499 380.118C320.919 379.698 321.409 379.502 321.969 379.53C322.557 379.558 323.047 379.782 323.439 380.202C323.859 380.622 324.055 381.126 324.027 381.714C323.971 383.73 324.027 386.936 324.195 391.332C324.391 395.476 324.489 398.36 324.489 399.984C324.489 400.572 324.279 401.076 323.859 401.496C323.467 401.888 322.977 402.084 322.389 402.084C321.801 402.084 321.297 401.888 320.877 401.496C320.485 401.076 320.289 400.572 320.289 399.984ZM323.271 372.684C323.691 373.076 323.901 373.566 323.901 374.154C323.901 374.742 323.691 375.246 323.271 375.666C322.879 376.058 322.389 376.254 321.801 376.254C321.213 376.254 320.709 376.058 320.289 375.666C319.897 375.246 319.701 374.742 319.701 374.154C319.701 373.566 319.897 373.076 320.289 372.684C320.709 372.264 321.213 372.054 321.801 372.054C322.389 372.054 322.879 372.264 323.271 372.684ZM347.677 402H346.627C345.227 402.028 343.225 402.056 340.621 402.084C339.417 402.084 337.807 402.098 335.791 402.126C333.775 402.154 332.641 402.182 332.389 402.21C332.361 402.462 332.347 403.456 332.347 405.192C332.347 405.78 332.137 406.27 331.717 406.662C331.325 407.082 330.835 407.292 330.247 407.292C329.659 407.292 329.155 407.082 328.735 406.662C328.343 406.27 328.147 405.78 328.147 405.192C328.147 403.456 328.189 401.804 328.273 400.236C328.301 399.816 328.441 399.424 328.693 399.06C329.085 398.388 329.687 398.038 330.499 398.01C333.383 392.326 334.825 386.922 334.825 381.798C334.825 381.21 335.021 380.72 335.413 380.328C335.833 379.908 336.337 379.698 336.925 379.698C337.121 379.698 337.317 379.726 337.513 379.782H337.555C337.919 379.754 339.683 379.712 342.847 379.656C344.247 379.628 345.297 379.614 345.997 379.614H347.635C347.719 379.614 347.803 379.628 347.887 379.656C347.971 379.684 348.069 379.712 348.181 379.74C348.573 379.88 348.895 380.118 349.147 380.454C349.343 380.706 349.483 381 349.567 381.336C349.567 381.448 349.581 381.574 349.609 381.714C349.637 381.91 349.651 382.148 349.651 382.428V384.234C349.623 385.298 349.567 387.16 349.483 389.82C349.315 394.58 349.231 397.254 349.231 397.842H349.357C349.469 397.87 349.567 397.884 349.651 397.884C349.903 397.912 350.155 397.982 350.407 398.094C350.911 398.346 351.275 398.752 351.499 399.312C351.583 399.48 351.639 399.676 351.667 399.9C351.723 400.152 351.765 400.474 351.793 400.866C351.849 401.454 351.877 402.238 351.877 403.218V406.956C351.877 407.544 351.667 408.034 351.247 408.426C350.855 408.846 350.365 409.056 349.777 409.056C349.189 409.056 348.685 408.846 348.265 408.426C347.873 408.034 347.677 407.544 347.677 406.956V402ZM335.203 397.968C337.471 397.912 339.263 397.884 340.579 397.884C342.343 397.856 343.827 397.842 345.031 397.842C345.031 397.03 345.115 394.3 345.283 389.652C345.367 387.048 345.423 385.214 345.451 384.15V383.814C344.723 383.814 343.883 383.828 342.931 383.856C341.307 383.884 339.977 383.912 338.941 383.94C338.633 388.532 337.387 393.208 335.203 397.968ZM363.569 402C361.581 401.972 359.873 401.524 358.445 400.656C357.017 399.788 355.911 398.626 355.127 397.17C353.783 394.538 353.559 391.542 354.455 388.182C354.875 386.67 355.505 385.27 356.345 383.982C357.213 382.694 358.263 381.686 359.495 380.958C360.811 380.09 362.295 379.698 363.947 379.782C365.627 379.866 367.293 380.44 368.945 381.504C369.365 381.812 369.729 382.106 370.037 382.386C370.373 382.666 370.653 382.988 370.877 383.352C371.129 383.688 371.311 383.954 371.423 384.15C371.535 384.346 371.689 384.598 371.885 384.906C372.081 385.214 372.207 385.424 372.263 385.536C372.515 386.068 372.543 386.614 372.347 387.174C372.151 387.706 371.787 388.098 371.255 388.35C370.751 388.602 370.219 388.63 369.659 388.434C369.127 388.238 368.735 387.888 368.483 387.384C368.343 387.104 368.189 386.852 368.021 386.628C367.881 386.404 367.783 386.25 367.727 386.166C367.671 386.054 367.587 385.914 367.475 385.746C367.363 385.578 367.251 385.452 367.139 385.368C367.027 385.284 366.845 385.172 366.593 385.032C364.773 383.828 363.135 383.66 361.679 384.528C360.195 385.452 359.145 387.034 358.529 389.274C357.913 391.598 358.025 393.586 358.865 395.238C359.733 396.89 361.329 397.744 363.653 397.8C364.493 397.828 365.165 397.688 365.669 397.38C366.201 397.1 366.957 396.526 367.937 395.658C368.329 395.21 368.805 394.958 369.365 394.902C369.953 394.846 370.471 395.014 370.919 395.406C371.367 395.77 371.619 396.246 371.675 396.834C371.731 397.394 371.577 397.898 371.213 398.346C369.897 399.578 368.693 400.502 367.601 401.118C366.537 401.734 365.193 402.028 363.569 402ZM378.068 409.644C377.536 409.812 377.004 409.756 376.472 409.476C375.968 409.196 375.632 408.776 375.464 408.216C375.296 407.684 375.352 407.152 375.632 406.62C375.912 406.116 376.332 405.78 376.892 405.612C377.172 405.528 377.424 405.458 377.648 405.402C377.9 405.346 378.068 405.304 378.152 405.276H378.404C378.488 405.248 378.572 405.206 378.656 405.15C379.3 404.758 380.126 403.61 381.134 401.706V401.664L381.05 401.496C378.194 395.56 375.87 389.134 374.078 382.218C373.91 381.658 373.966 381.126 374.246 380.622C374.554 380.118 374.988 379.796 375.548 379.656C376.108 379.488 376.64 379.544 377.144 379.824C377.648 380.132 377.97 380.566 378.11 381.126C379.538 386.614 381.302 391.752 383.402 396.54L384.116 394.608C384.984 392.172 385.754 389.708 386.426 387.216C387.126 384.724 387.602 382.806 387.854 381.462C387.938 380.902 388.218 380.454 388.694 380.118C389.17 379.782 389.688 379.67 390.248 379.782C390.836 379.866 391.298 380.146 391.634 380.622C391.97 381.098 392.082 381.63 391.97 382.218C391.718 383.674 391.228 385.704 390.5 388.308C389.772 390.912 388.96 393.488 388.064 396.036C386.972 399.116 385.908 401.65 384.872 403.638C383.472 406.27 382.1 407.978 380.756 408.762C380.588 408.874 380.378 408.972 380.126 409.056C379.902 409.168 379.678 409.252 379.454 409.308C379.23 409.364 379.02 409.42 378.824 409.476C378.628 409.532 378.46 409.574 378.32 409.602C378.18 409.63 378.096 409.644 378.068 409.644ZM404.442 399.984C404.442 400.572 404.232 401.062 403.812 401.454C403.392 401.846 402.888 402.042 402.3 402.042C401.712 402.042 401.222 401.832 400.83 401.412C400.438 400.992 400.242 400.488 400.242 399.9C400.382 392.62 400.382 387.342 400.242 384.066C399.794 384.066 398.996 384.052 397.848 384.024C396.728 383.996 395.86 383.982 395.244 383.982C394.656 383.982 394.166 383.772 393.774 383.352C393.382 382.932 393.186 382.428 393.186 381.84C393.186 381.252 393.396 380.762 393.816 380.37C394.236 379.978 394.74 379.782 395.328 379.782C402.776 379.922 407.564 379.95 409.692 379.866C410.28 379.838 410.784 380.02 411.204 380.412C411.624 380.804 411.848 381.294 411.876 381.882C411.904 382.47 411.722 382.974 411.33 383.394C410.938 383.814 410.448 384.038 409.86 384.066C408.236 384.122 406.43 384.15 404.442 384.15C404.582 387.482 404.582 392.76 404.442 399.984ZM415.733 400.11C415.593 398.318 415.481 396.652 415.397 395.112C415.313 393.488 415.257 392.102 415.229 390.954C415.229 389.778 415.215 388.196 415.187 386.208C415.187 384.22 415.173 382.764 415.145 381.84C415.145 381.252 415.341 380.748 415.733 380.328C416.125 379.908 416.615 379.698 417.203 379.698C417.791 379.698 418.295 379.894 418.715 380.286C419.135 380.678 419.345 381.168 419.345 381.756L419.429 388.434C422.257 388.322 425.393 388.266 428.837 388.266C428.809 386.698 428.725 384.57 428.585 381.882C428.557 381.294 428.739 380.79 429.131 380.37C429.523 379.922 429.999 379.684 430.559 379.656C431.147 379.628 431.651 379.81 432.071 380.202C432.519 380.594 432.757 381.07 432.785 381.63C433.065 387.118 433.205 393.208 433.205 399.9C433.205 400.488 432.995 400.992 432.575 401.412C432.183 401.804 431.693 402 431.105 402C430.517 402 430.013 401.804 429.593 401.412C429.201 400.992 429.005 400.488 429.005 399.9C429.005 397.128 428.991 394.65 428.963 392.466C425.463 392.466 422.313 392.522 419.513 392.634C419.569 395.042 419.709 397.394 419.933 399.69C419.989 400.25 419.835 400.768 419.471 401.244C419.107 401.692 418.631 401.944 418.043 402C417.483 402.056 416.965 401.902 416.489 401.538C416.041 401.174 415.789 400.698 415.733 400.11ZM448.972 402.168C447.46 402.28 446.046 402.14 444.73 401.748C443.414 401.328 442.308 400.754 441.412 400.026C440.544 399.298 439.788 398.43 439.144 397.422C438.528 396.414 438.066 395.364 437.758 394.272C437.45 393.18 437.282 392.088 437.254 390.996C437.226 389.904 437.324 388.812 437.548 387.72C437.772 386.628 438.136 385.578 438.64 384.57C439.172 383.562 439.83 382.666 440.614 381.882C441.398 381.07 442.364 380.454 443.512 380.034C444.688 379.586 445.962 379.39 447.334 379.446C451.086 379.614 454.012 381.392 456.112 384.78C456.42 385.256 456.49 385.76 456.322 386.292C456.182 386.796 455.86 387.188 455.356 387.468C454.88 387.748 454.348 387.818 453.76 387.678C453.2 387.538 452.78 387.216 452.5 386.712C451.828 385.62 451.058 384.808 450.19 384.276C449.35 383.716 448.342 383.408 447.166 383.352C445.682 383.268 444.394 383.8 443.302 384.948C442.266 386.068 441.664 387.566 441.496 389.442C444.408 389.498 446.578 389.582 448.006 389.694C448.566 389.75 449.042 389.988 449.434 390.408C449.826 390.8 449.994 391.262 449.938 391.794C449.882 392.326 449.63 392.774 449.182 393.138C448.734 393.502 448.23 393.656 447.67 393.6C446.27 393.488 444.324 393.432 441.832 393.432C442.28 394.972 443.092 396.19 444.268 397.086C445.472 397.982 446.97 398.374 448.762 398.262C449.658 398.206 450.428 398.01 451.072 397.674C451.744 397.338 452.528 396.764 453.424 395.952C453.844 395.616 454.348 395.462 454.936 395.49C455.524 395.518 456.014 395.728 456.406 396.12C456.798 396.512 456.98 396.988 456.952 397.548C456.924 398.08 456.7 398.528 456.28 398.892C455.132 399.872 454.012 400.642 452.92 401.202C451.828 401.734 450.512 402.056 448.972 402.168Z" fill="#6CB4EE" fill-opacity="0.5"/>
<path d="M221.948 333.14C221.556 333.14 221.22 333.019 220.94 332.776C220.66 332.533 220.52 332.188 220.52 331.74C220.52 330.695 220.539 329.332 220.576 327.652L218.476 327.68C217.113 327.68 215.853 327.699 214.696 327.736C213.912 327.773 213.268 327.633 212.764 327.316C212.26 326.98 212.008 326.476 212.008 325.804C212.008 325.468 212.101 325.132 212.288 324.796C212.475 324.46 212.801 324.059 213.268 323.592C213.791 323.069 214.827 321.669 216.376 319.392C217.944 317.115 219.036 315.397 219.652 314.24C219.913 313.736 220.193 313.381 220.492 313.176C220.791 312.952 221.145 312.84 221.556 312.84C221.985 312.84 222.359 312.999 222.676 313.316C222.993 313.633 223.171 314.147 223.208 314.856C223.469 319.056 223.553 322.388 223.46 324.852C224.785 324.852 225.719 324.861 226.26 324.88C226.689 324.88 227.025 325.011 227.268 325.272C227.511 325.533 227.632 325.851 227.632 326.224C227.632 326.616 227.501 326.961 227.24 327.26C226.997 327.54 226.652 327.68 226.204 327.68C225.644 327.661 224.711 327.652 223.404 327.652C223.348 328.959 223.32 330.34 223.32 331.796C223.32 332.225 223.18 332.561 222.9 332.804C222.639 333.028 222.321 333.14 221.948 333.14ZM220.66 324.852C220.697 323.881 220.707 322.649 220.688 321.156C220.669 319.663 220.632 318.589 220.576 317.936C219.251 320.195 217.673 322.519 215.844 324.908L220.66 324.852ZM238.086 332.804C235.79 333.401 233.821 332.869 232.178 331.208C230.834 329.845 229.947 327.96 229.518 325.552C229.294 324.544 229.219 323.461 229.294 322.304C229.369 321.128 229.537 320.017 229.798 318.972C230.059 317.927 230.507 316.937 231.142 316.004C231.777 315.052 232.533 314.296 233.41 313.736C233.559 313.643 233.737 313.559 233.942 313.484C234.147 313.391 234.334 313.316 234.502 313.26L234.978 313.092C235.127 313.055 235.211 313.036 235.23 313.036C235.753 312.849 236.219 312.943 236.63 313.316C236.854 313.297 237.171 313.307 237.582 313.344C238.011 313.381 238.301 313.4 238.45 313.4C240.055 313.773 241.315 315.005 242.23 317.096C242.977 318.813 243.359 320.773 243.378 322.976C243.397 325.253 243.023 327.241 242.258 328.94C241.306 331.068 239.915 332.356 238.086 332.804ZM237.414 330.116C238.366 329.873 239.131 329.099 239.71 327.792C240.307 326.448 240.597 324.843 240.578 322.976C240.559 321.147 240.261 319.56 239.682 318.216C239.141 316.984 238.525 316.293 237.834 316.144C237.535 316.088 237.33 316.069 237.218 316.088C237.125 316.088 236.901 316.107 236.546 316.144C236.21 316.163 235.874 316.172 235.538 316.172C235.351 316.172 235.165 316.135 234.978 316.06C234.959 316.079 234.941 316.088 234.922 316.088C233.802 316.797 232.99 318.011 232.486 319.728C232.001 321.427 231.926 323.209 232.262 325.076C232.598 326.905 233.233 328.287 234.166 329.22C235.062 330.135 236.145 330.433 237.414 330.116ZM255.499 333.14C255.107 333.14 254.771 333.019 254.491 332.776C254.211 332.533 254.071 332.188 254.071 331.74C254.071 330.695 254.089 329.332 254.127 327.652L252.027 327.68C250.664 327.68 249.404 327.699 248.247 327.736C247.463 327.773 246.819 327.633 246.315 327.316C245.811 326.98 245.559 326.476 245.559 325.804C245.559 325.468 245.652 325.132 245.839 324.796C246.025 324.46 246.352 324.059 246.819 323.592C247.341 323.069 248.377 321.669 249.927 319.392C251.495 317.115 252.587 315.397 253.203 314.24C253.464 313.736 253.744 313.381 254.043 313.176C254.341 312.952 254.696 312.84 255.107 312.84C255.536 312.84 255.909 312.999 256.227 313.316C256.544 313.633 256.721 314.147 256.759 314.856C257.02 319.056 257.104 322.388 257.011 324.852C258.336 324.852 259.269 324.861 259.811 324.88C260.24 324.88 260.576 325.011 260.819 325.272C261.061 325.533 261.183 325.851 261.183 326.224C261.183 326.616 261.052 326.961 260.791 327.26C260.548 327.54 260.203 327.68 259.755 327.68C259.195 327.661 258.261 327.652 256.955 327.652C256.899 328.959 256.871 330.34 256.871 331.796C256.871 332.225 256.731 332.561 256.451 332.804C256.189 333.028 255.872 333.14 255.499 333.14ZM254.211 324.852C254.248 323.881 254.257 322.649 254.239 321.156C254.22 319.663 254.183 318.589 254.127 317.936C252.801 320.195 251.224 322.519 249.395 324.908L254.211 324.852Z" fill="#6CB4EE" fill-opacity="0.5"/>
<path d="M184.746 103.604C156.862 117.071 133.813 128.466 133.467 128.898C132.993 129.545 132.906 140.379 132.906 189.543C132.906 245.915 132.949 249.455 133.683 250.275C134.503 251.268 235.335 300 236.543 300C237.709 300 338.497 251.268 339.317 250.275C340.051 249.455 340.094 245.915 340.094 189.5C340.094 133.085 340.051 129.545 339.36 128.725C338.367 127.603 237.622 79 236.371 79.0432C235.853 79.0432 212.63 90.0932 184.746 103.604ZM278.283 106.064C301.246 117.114 322.094 127.214 324.641 128.423L329.303 130.667L315.922 137.142L302.541 143.617L294.858 139.904C290.671 137.833 269.909 127.819 248.715 117.632C227.522 107.402 210.213 98.9418 210.17 98.8123C210.17 98.6396 235.809 86.0357 236.414 85.9494C236.5 85.9062 255.363 94.9707 278.283 106.064ZM248.759 124.97C273.837 137.056 294.34 147.113 294.34 147.242C294.34 147.372 290.239 149.444 285.232 151.861L276.125 156.264L234.169 136.02C211.12 124.883 190.314 114.826 187.984 113.704L183.71 111.632L192.732 107.186C197.696 104.769 202.055 102.827 202.444 102.87C202.832 102.913 223.68 112.841 248.759 124.97ZM224.457 138.696L272.974 162.134L273.189 182.551C273.405 202.104 273.448 202.967 274.225 203.571C274.7 203.917 275.607 204.176 276.211 204.176C277.42 204.176 301.85 192.521 302.973 191.399C303.534 190.881 303.663 187.73 303.836 170.465L304.052 150.178L317.864 143.487C325.461 139.775 332.108 136.581 332.67 136.365L333.619 135.977V191.14V246.261L287.175 268.706C261.578 281.051 240.514 291.195 240.342 291.281C240.126 291.367 239.953 266.634 239.953 236.247V181.083L251.219 175.687C257.391 172.709 262.701 169.99 263.046 169.645C263.348 169.299 263.78 168.479 263.909 167.832C264.168 166.882 263.952 166.407 262.916 165.328C262.183 164.637 261.319 164.033 260.931 164.033C260.586 164.033 255.061 166.537 248.629 169.645C242.198 172.709 236.759 175.256 236.543 175.256C236.327 175.256 234.083 174.263 231.579 173.098C229.076 171.889 226.572 170.939 226.097 170.939C223.767 170.939 222.256 173.184 223.162 175.342C223.551 176.335 224.63 177.026 228.342 178.795L233.047 181.04V236.16V291.324L230.5 290.159C229.119 289.511 208.055 279.368 183.71 267.627L139.424 246.261L139.381 191.097V135.977L140.805 136.581C141.539 136.926 157.682 144.696 176.631 153.846C199.206 164.767 211.551 170.508 212.414 170.508C213.148 170.508 214.141 170.206 214.573 169.774C215.522 168.911 215.609 166.321 214.702 165.328C214.357 164.94 198.213 156.997 178.833 147.631C147.755 132.61 143.74 130.581 144.604 130.193C145.165 129.934 152.33 126.48 160.531 122.509C168.732 118.538 175.552 115.301 175.682 115.301C175.811 115.258 197.782 125.79 224.457 138.696ZM296.93 170.637V187.169L288.297 191.356L279.664 195.5V178.795L279.707 162.091L287.995 158.12C292.57 155.918 296.412 154.105 296.628 154.105C296.8 154.105 296.93 161.53 296.93 170.637Z" fill="#6CB4EE" fill-opacity="0.5"/>
<path d="M147.668 212.075C146.502 213.283 146.459 215.01 147.495 216.175C148.617 217.513 176.803 230.938 178.444 230.938C179.998 230.938 181.034 229.988 181.465 228.304C181.681 227.398 181.465 226.88 180.516 225.844C178.962 224.204 151.682 211.082 149.869 211.082C149.092 211.082 148.229 211.471 147.668 212.075Z" fill="#6CB4EE" fill-opacity="0.5"/>
<path d="M147.798 227.269C146.417 228.607 146.373 230.463 147.712 231.671C148.834 232.75 163.769 240.002 164.848 240.002C165.279 240.002 166.099 239.613 166.747 239.096C167.999 238.103 168.301 235.988 167.351 234.693C166.661 233.786 150.906 226.189 149.74 226.189C149.222 226.189 148.359 226.664 147.798 227.269Z" fill="#6CB4EE" fill-opacity="0.5"/>
</svg>
