<svg xmlns="http://www.w3.org/2000/svg" width="74" height="74" viewBox="0 0 74 74" fill="none">
  <rect width="74" height="74" rx="4" fill="#2F4858"/>
  <g filter="url(#filter0_i_23_222)">
    <path d="M52.836 37C54.8571 36.7595 56.5869 36.371 57.646 35.7605C59.7532 34.5252 61.2862 32.5065 61.9106 30.145C62.5349 27.7835 62.1999 25.2709 60.9785 23.1556C59.7572 21.0402 57.7487 19.4938 55.3914 18.8538C53.0341 18.2138 50.5194 18.5322 48.396 19.7395C47.3369 20.35 46.1344 21.6542 44.918 23.2869C45.7227 21.4137 46.25 19.721 46.25 18.5C46.25 16.0467 45.2754 13.694 43.5407 11.9593C41.806 10.2246 39.4532 9.25 37 9.25C34.5467 9.25 32.194 10.2246 30.4592 11.9593C28.7245 13.694 27.75 16.0467 27.75 18.5C27.75 19.721 28.2772 21.4137 29.082 23.2869C27.8656 21.6542 26.6631 20.35 25.604 19.7395C23.4806 18.5322 20.9658 18.2138 18.6085 18.8538C16.2512 19.4938 14.2428 21.0402 13.0214 23.1556C11.8001 25.2709 11.465 27.7835 12.0894 30.145C12.7137 32.5065 14.2468 34.5252 16.354 35.7605C17.4131 36.371 19.1429 36.7595 21.164 37C19.1429 37.2405 17.4131 37.629 16.354 38.2395C15.2935 38.8424 14.3628 39.6492 13.6154 40.6133C12.8679 41.5774 12.3186 42.6798 11.999 43.8571C11.6794 45.0344 11.5958 46.2632 11.753 47.473C11.9102 48.6827 12.3052 49.8493 12.9152 50.9058C13.5251 51.9622 14.338 52.8876 15.3071 53.6286C16.2761 54.3696 17.3822 54.9116 18.5615 55.2234C19.7409 55.5352 20.9703 55.6107 22.1789 55.4454C23.3876 55.2802 24.5516 54.8775 25.604 54.2605C26.6631 53.65 27.8656 52.3457 29.082 50.7131C28.2772 52.5863 27.75 54.279 27.75 55.5C27.75 57.9533 28.7245 60.306 30.4592 62.0407C32.194 63.7754 34.5467 64.75 37 64.75C39.4532 64.75 41.806 63.7754 43.5407 62.0407C45.2754 60.306 46.25 57.9533 46.25 55.5C46.25 54.279 45.7227 52.5863 44.918 50.7131C46.1344 52.3457 47.3369 53.65 48.396 54.2605C49.4484 54.8775 50.6124 55.2802 51.821 55.4454C53.0297 55.6107 54.2591 55.5352 55.4384 55.2234C56.6178 54.9116 57.7239 54.3696 58.6929 53.6286C59.6619 52.8876 60.4748 51.9622 61.0848 50.9058C61.6948 49.8493 62.0897 48.6827 62.247 47.473C62.4042 46.2632 62.3206 45.0344 62.001 43.8571C61.6814 42.6798 61.132 41.5774 60.3846 40.6133C59.6372 39.6492 58.7065 38.8424 57.646 38.2395C56.5869 37.629 54.8571 37.2405 52.836 37ZM41.625 18.5C41.5783 18.8206 41.5088 19.1375 41.4169 19.4481C41.2365 20.0586 40.9544 20.8125 40.5705 21.6866C39.6901 23.6233 38.7067 25.5115 37.6244 27.343L37 28.4068C36.7897 28.0534 36.5816 27.6989 36.3756 27.343C35.2933 25.5115 34.3098 23.6233 33.4295 21.6866C33.1018 20.9585 32.8191 20.2109 32.5831 19.4481C32.4913 19.1374 32.4217 18.8206 32.375 18.5C32.375 17.2734 32.8623 16.097 33.7296 15.2296C34.597 14.3623 35.7734 13.875 37 13.875C38.2266 13.875 39.403 14.3623 40.2704 15.2296C41.1377 16.097 41.625 17.2734 41.625 18.5ZM16.9737 25.4375C17.5871 24.3753 18.5972 23.6002 19.782 23.2827C20.9668 22.9653 22.2292 23.1315 23.2915 23.7447C23.5474 23.9461 23.7885 24.1656 24.013 24.4015C24.4477 24.864 24.9565 25.4791 25.5207 26.2515C26.6539 27.7916 27.8425 29.7064 28.9525 31.6304L29.5537 32.7034C29.1452 32.7089 28.7367 32.712 28.3281 32.7126C26.1987 32.7342 24.0697 32.6416 21.9502 32.4351C21.1569 32.3555 20.3691 32.2273 19.5915 32.0512C19.2765 31.9748 18.9674 31.8758 18.6665 31.7553C17.6042 31.1419 16.8291 30.1317 16.5117 28.9469C16.1942 27.7621 16.3604 26.4998 16.9737 25.4375ZM23.2915 50.2552C22.2298 50.8589 20.9724 51.0181 19.7938 50.6981C18.6151 50.3781 17.6109 49.6049 17.0002 48.5472C16.3895 47.4895 16.222 46.2332 16.5342 45.0525C16.8463 43.8718 17.6129 42.8624 18.6665 42.2448C18.6711 42.2448 18.7405 42.2078 18.8839 42.1523C19.055 42.0921 19.2862 42.0227 19.5915 41.9487C20.2112 41.8007 21.0021 41.6713 21.9502 41.5649C24.0697 41.3584 26.1987 41.2658 28.3281 41.2874C28.7444 41.2874 29.1514 41.2874 29.5584 41.2966C29.3586 41.6555 29.1566 42.0132 28.9525 42.3696C27.8425 44.2936 26.6539 46.2084 25.5207 47.7485C25.056 48.3964 24.5509 49.0142 24.0084 49.5985C23.7852 49.8341 23.5457 50.0536 23.2915 50.2552ZM41.625 55.5C41.625 56.7266 41.1377 57.903 40.2704 58.7704C39.403 59.6377 38.2266 60.125 37 60.125C35.7734 60.125 34.597 59.6377 33.7296 58.7704C32.8623 57.903 32.375 56.7266 32.375 55.5C32.4216 55.1779 32.4911 54.8595 32.5831 54.5472C32.7635 53.9414 33.0456 53.1875 33.4295 52.3134C34.1972 50.5651 35.261 48.5764 36.3756 46.657L37 45.5933L37.6244 46.657C38.739 48.5764 39.7981 50.5651 40.5705 52.3134C40.9544 53.1921 41.2365 53.9414 41.4169 54.5519C41.511 54.862 41.5805 55.179 41.625 55.5ZM57.0262 25.4375C57.6395 26.4998 57.8057 27.7621 57.4883 28.9469C57.1708 30.1317 56.3957 31.1419 55.3335 31.7553C55.0326 31.8757 54.7234 31.9746 54.4085 32.0512C53.7887 32.1992 52.9979 32.3288 52.0497 32.4351C50.1442 32.6432 47.8965 32.7172 45.6719 32.7126C45.2556 32.7126 44.8486 32.7126 44.4416 32.7034L45.0475 31.6304C46.1575 29.7064 47.3461 27.7916 48.4792 26.2515C48.944 25.6037 49.4491 24.9858 49.9916 24.4015C50.2044 24.1702 50.3847 24.0037 50.5189 23.8927C50.6391 23.791 50.7039 23.754 50.7085 23.7447C51.7707 23.1315 53.0331 22.9653 54.2179 23.2827C55.4027 23.6002 56.4129 24.3753 57.0262 25.4375ZM50.7085 50.2552C50.4546 50.0549 50.215 49.837 49.9916 49.6031C49.4502 49.0179 48.9451 48.4001 48.4792 47.7531C47.2398 46.0198 46.0942 44.2211 45.0475 42.365C44.8449 42.0085 44.6445 41.6509 44.4462 41.292L45.6719 41.2827C47.8919 41.2781 50.1442 41.3521 52.0497 41.5602C52.9979 41.6666 53.7887 41.7961 54.4085 41.9441C54.7137 42.0181 54.945 42.0875 55.1161 42.1476L55.3381 42.2401C55.8683 42.5416 56.3337 42.945 56.7074 43.427C57.0811 43.9091 57.3558 44.4603 57.5156 45.0489C57.6754 45.6376 57.7172 46.252 57.6386 46.8569C57.56 47.4617 57.3625 48.045 57.0575 48.5733C56.7525 49.1015 56.3461 49.5642 55.8616 49.9347C55.377 50.3052 54.824 50.5762 54.2343 50.7321C53.6446 50.888 53.0299 50.9257 52.4256 50.8431C51.8213 50.7605 51.2393 50.5591 50.7131 50.2506L50.7085 50.2552ZM37 41.625C35.7734 41.625 34.597 41.1377 33.7296 40.2704C32.8623 39.403 32.375 38.2266 32.375 37C32.375 35.7734 32.8623 34.597 33.7296 33.7296C34.597 32.8623 35.7734 32.375 37 32.375C38.2266 32.375 39.403 32.8623 40.2704 33.7296C41.1377 34.597 41.625 35.7734 41.625 37C41.625 38.2266 41.1377 39.403 40.2704 40.2704C39.403 41.1377 38.2266 41.625 37 41.625Z" fill="#04724D"/>
  </g>
  <defs>
    <filter id="filter0_i_23_222" x="11.6758" y="9.25" width="50.6483" height="59.5" filterUnits="userSpaceOnUse" color-interpolation-filters="sRGB">
      <feFlood flood-opacity="0" result="BackgroundImageFix"/>
      <feBlend mode="normal" in="SourceGraphic" in2="BackgroundImageFix" result="shape"/>
      <feColorMatrix in="SourceAlpha" type="matrix" values="0 0 0 0 0 0 0 0 0 0 0 0 0 0 0 0 0 0 127 0" result="hardAlpha"/>
      <feOffset dy="4"/>
      <feGaussianBlur stdDeviation="2"/>
      <feComposite in2="hardAlpha" operator="arithmetic" k2="-1" k3="1"/>
      <feColorMatrix type="matrix" values="0 0 0 0 0 0 0 0 0 0 0 0 0 0 0 0 0 0 0.25 0"/>
      <feBlend mode="normal" in2="shape" result="effect1_innerShadow_23_222"/>
    </filter>
  </defs>
</svg>